:FULLY-SPECIFIED
:FORCE-ALL-JOINTS-BE-3DOF
:DEGREES
781
root 1.73079 16.3637 18.6236 -14.4197 75.2014 -20.207
lfemur -35.3794 7.83888 -12.649
ltibia 51.5646 -0 0
lfoot -24.5541 18.0467 -0.247962
ltoes 15.1558 -0 0
rfemur -15.0305 -21.333 21.2166
rtibia 52.6814 -0 0
rfoot -15.3369 -27.1502 -0.122957
rtoes -23.3698 0 0
lowerback 1.07674 4.67487 -0.09703
upperback -0.724406 6.23299 -3.43068
thorax -0.975 3.1259 -3.57343
lowerneck -5.52986 -6.33709 -0.391124
upperneck -1.01076 -8.42375 4.29646
head 0.825255 -4.13561 1.18608
lclavicle 5.60573e-14 -3.33958e-14 0
lhumerus -55.6838 -11.4843 94.8411
lradius 70.4546 -0 0
lwrist 15.8078 0 0
lhand -22.8624 -3.72182 -0.0122918
lfingers 7.12502 -0 0
lthumb 3.57595 26.2254 -0.0120479
rclavicle 5.60573e-14 -3.33958e-14 0
rhumerus -32.231 49.3983 -113.128
rradius 79.2457 -0 0
rwrist 5.67359 0 0
rhand -21.6248 -20.3938 0.0374383
rfingers 7.12502 -0 0
rthumb 4.76964 -50.2749 0.0418273
782
root 1.67765 16.4 18.7131 -9.90855 72.0629 -15.6263
lfemur -34.7312 6.00089 -11.7697
ltibia 50.9038 -0 0
lfoot -23.8194 17.2421 -0.201414
ltoes 13.9296 -0 0
rfemur -14.9916 -20.4045 20.9658
rtibia 51.8049 -0 0
rfoot -15.8735 -26.6035 -0.0998891
rtoes -24.4315 0 0
lowerback 1.04331 4.65523 0.0696217
upperback -0.679822 6.20822 -3.366
thorax -0.901118 3.1116 -3.59205
lowerneck -5.56786 -6.21185 -0.281522
upperneck -0.988072 -8.26501 4.18862
head 0.823153 -4.05863 1.13728
lclavicle 5.60573e-14 -3.33958e-14 0
lhumerus -55.8538 -11.4858 94.9083
lradius 70.482 -0 0
lwrist 15.7767 0 0
lhand -23.015 -3.52956 -0.00998694
lfingers 7.12502 -0 0
lthumb 3.42857 26.4206 -0.0097888
rclavicle 5.60573e-14 -3.33958e-14 0
rhumerus -32.624 48.9746 -113.609
rradius 79.2257 -0 0
rwrist 5.41386 0 0
rhand -22.2724 -20.5317 0.0304155
rfingers 7.12502 -0 0
rthumb 4.14463 -50.4346 0.0339815
783
root 1.62451 16.4363 18.8027 -6.75586 68.8465 -12.4034
lfemur -34.1133 4.15338 -10.9137
ltibia 50.2431 -0 0
lfoot -23.0853 16.4381 -0.144557
ltoes 12.7035 -0 0
rfemur -14.9572 -19.4758 20.7172
rtibia 50.9283 -0 0
rfoot -16.4098 -26.0569 -0.0717035
rtoes -25.4931 0 0
lowerback 1.00982 4.63569 0.23628
upperback -0.635269 6.1834 -3.30135
thorax -0.827232 3.09732 -3.61069
lowerneck -5.60562 -6.08654 -0.172029
upperneck -0.965692 -8.10623 4.0809
head 0.820987 -3.98166 1.08848
lclavicle 5.60573e-14 -3.33958e-14 0
lhumerus -56.0238 -11.4872 94.9755
lradius 70.5095 -0 0
lwrist 15.7455 0 0
lhand -23.1676 -3.3373 -0.00716999
lfingers 7.12502 -0 0
lthumb 3.28121 26.6157 -0.00702774
rclavicle 5.60573e-14 -3.33958e-14 0
rhumerus -33.0083 48.5489 -114.081
rradius 79.2057 -0 0
rwrist 5.15414 0 0
rhand -22.9199 -20.6696 0.0218341
rfingers 7.12502 -0 0
rthumb 3.51966 -50.5942 0.0243941
784
root 1.57138 16.4726 18.8922 -4.44193 65.5828 -10.0185
lfemur -33.5241 2.29699 -10.0794
ltibia 49.5823 -0 0
lfoot -22.3522 15.6349 -0.0774109
ltoes 11.4774 -0 0
rfemur -14.9273 -18.547 20.4705
rtibia 50.0518 -0 0
rfoot -16.9457 -25.5107 -0.0384051
rtoes -26.5548 0 0
lowerback 0.976276 4.61624 0.402946
upperback -0.590746 6.15853 -3.23671
thorax -0.753343 3.08307 -3.62935
lowerneck -5.64313 -5.96115 -0.0626446
upperneck -0.943623 -7.94741 3.97328
head 0.818755 -3.9047 1.03968
lclavicle 5.60573e-14 -3.33958e-14 0
lhumerus -56.1939 -11.4883 95.0427
lradius 70.5369 -0 0
lwrist 15.7143 0 0
lhand -23.3202 -3.14504 -0.00384099
lfingers 7.12502 -0 0
lthumb 3.13386 26.8109 -0.00376478
rclavicle 5.60573e-14 -3.33958e-14 0
rhumerus -33.3841 48.121 -114.546
rradius 79.1857 -0 0
rwrist 4.89441 0 0
rhand -23.5674 -20.8074 0.0116952
rfingers 7.12502 -0 0
rthumb 2.89471 -50.7536 0.0130665
785
root 1.51824 16.5089 18.9817 -2.67731 62.2886 351.818
lfemur -32.9625 0.432324 -9.26479
ltibia 48.9216 0 0
lfoot -21.62 14.8327 0
ltoes 10.2513 0 0
rfemur -14.9017 -17.6181 20.2256
rtibia 49.1753 0 0
rfoot -17.4814 -24.9648 0
rtoes -27.6164 0 0
lowerback 0.942677 4.59689 0.569618
upperback -0.546254 6.13361 -3.1721
thorax -0.67945 3.06884 -3.64802
lowerneck -5.68039 -5.8357 0.0466325
upperneck -0.921863 -7.78855 3.86576
head 0.816457 -3.82773 0.990877
lclavicle -8.44835e-15 1.74931e-14 0
lhumerus -56.3639 -11.4893 95.1099
lradius 70.5643 0 0
lwrist 15.6832 0 0
lhand -23.4728 -2.9528 0
lfingers 7.12502 0 0
lthumb 2.98652 27.006 0
rclavicle -8.44835e-15 1.74931e-14 0
rhumerus -33.7516 47.6912 -115.002
rradius 79.1657 0 0
rwrist 4.63468 0 0
rhand -24.2149 -20.945 0
rfingers 7.12502 0 0
rthumb 2.26979 -770.913 0
786
root 1.52289 16.5192 19.0834 -1.9181 59.8856 -7.48736
lfemur -33.4633 0.267618 -9.25761
ltibia 48.9922 -0 0
lfoot -21.3783 13.568 -0.0403891
ltoes 10.2694 -0 0
rfemur -14.6021 -16.7854 20.1817
rtibia 48.4604 -0 0
rfoot -17.8394 -24.2433 -0.033932
rtoes -27.0707 0 0
lowerback 1.01694 4.59964 0.749504
upperback -0.514509 6.1395 -3.07268
thorax -0.679882 3.07075 -3.65028
lowerneck -5.70557 -5.69056 0.12086
upperneck -0.951727 -7.59852 3.77912
head 0.802656 -3.73497 0.956938
lclavicle -8.44835e-15 1.74931e-14 0
lhumerus -56.2607 -11.2903 94.9394
lradius 70.1619 -0 0
lwrist 16.2867 0 0
lhand -22.743 -2.52163 0.0413598
lfingers 7.12502 -0 0
lthumb 3.69079 27.408 0.0372042
rclavicle -8.44835e-15 1.74931e-14 0
rhumerus -33.8216 47.527 -115.046
rradius 78.7005 -0 0
rwrist 4.59155 0 0
rhand -24.0156 -21.4496 -0.0131874
rfingers 7.12502 -0 0
rthumb 2.46226 -51.4141 -0.0126468
787
root 1.52754 16.5294 19.1851 -1.26374 57.4787 -6.89831
lfemur -33.9641 0.102981 -9.249
ltibia 49.0628 -0 0
lfoot -21.1359 12.3031 -0.0754345
ltoes 10.2874 -0 0
rfemur -14.3044 -15.9525 20.1425
rtibia 47.7454 -0 0
rfoot -18.1977 -23.5217 -0.0633533
rtoes -26.525 0 0
lowerback 1.0912 4.60216 0.929395
upperback -0.482753 6.14533 -2.97325
thorax -0.680314 3.07266 -3.65254
lowerneck -5.73055 -5.54538 0.195005
upperneck -0.981868 -7.40853 3.69242
head 0.788802 -3.64221 0.922981
lclavicle -8.44835e-15 1.74931e-14 0
lhumerus -56.1582 -11.0909 94.7693
lradius 69.7595 -0 0
lwrist 16.8902 0 0
lhand -22.0129 -2.08996 0.0772234
lfingers 7.12502 -0 0
lthumb 4.39531 27.8105 0.069463
rclavicle -8.44835e-15 1.74931e-14 0
rhumerus -33.8912 47.3629 -115.089
rradius 78.2352 -0 0
rwrist 4.54841 0 0
rhand -23.8162 -21.9543 -0.0246189
rfingers 7.12502 -0 0
rthumb 2.65483 -51.9153 -0.0236097
788
root 1.53219 16.5397 19.2869 -0.692575 55.0686 -6.39324
lfemur -34.465 -0.0615741 -9.23895
ltibia 49.1334 -0 0
lfoot -20.8927 11.0381 -0.105118
ltoes 10.3055 -0 0
rfemur -14.0086 -15.1194 20.108
rtibia 47.0305 -0 0
rfoot -18.5565 -22.7999 -0.0882582
rtoes -25.9793 0 0
lowerback 1.16548 4.60445 1.10929
upperback -0.450987 6.15111 -2.87382
thorax -0.680746 3.07457 -3.65481
lowerneck -5.75534 -5.40018 0.269069
upperneck -1.01229 -7.21859 3.60565
head 0.774894 -3.54946 0.889004
lclavicle -8.44835e-15 1.74931e-14 0
lhumerus -56.0563 -10.8913 94.5998
lradius 69.3571 -0 0
lwrist 17.4937 0 0
lhand -21.2826 -1.65788 0.107583
lfingers 7.12502 -0 0
lthumb 5.10004 28.2134 0.0967699
rclavicle -8.44835e-15 1.74931e-14 0
rhumerus -33.9605 47.1986 -115.132
rradius 77.77 -0 0
rwrist 4.50528 0 0
rhand -23.6167 -22.459 -0.0342934
rfingers 7.12502 -0 0
rthumb 2.84749 -52.4166 -0.0328875
789
root 1.53684 16.55 19.3886 -0.188439 52.656 -5.9561
lfemur -34.9659 -0.226035 -9.22746
ltibia 49.204 -0 0
lfoot -20.6489 9.77299 -0.129425
ltoes 10.3236 -0 0
rfemur -13.7143 -14.2861 20.0781
rtibia 46.3155 -0 0
rfoot -18.9154 -22.0779 -0.108642
rtoes -25.4336 0 0
lowerback 1.23976 4.60651 1.28919
upperback -0.41921 6.15683 -2.77439
thorax -0.681178 3.07648 -3.65707
lowerneck -5.77993 -5.25494 0.343052
upperneck -1.04298 -7.0287 3.51881
head 0.760933 -3.45672 0.855008
lclavicle -8.44835e-15 1.74931e-14 0
lhumerus -55.9551 -10.6914 94.4307
lradius 68.9547 -0 0
lwrist 18.0972 0 0
lhand -20.5521 -1.22544 0.132431
lfingers 7.12502 -0 0
lthumb 5.80494 28.6165 0.119119
rclavicle -8.44835e-15 1.74931e-14 0
rhumerus -34.0293 47.0344 -115.174
rradius 77.3048 -0 0
rwrist 4.46215 0 0
rhand -23.4171 -22.9638 -0.0422101
rfingers 7.12502 -0 0
rthumb 3.04022 -52.9178 -0.0404796
790
root 1.5415 16.5602 19.4903 0.260945 50.2413 -5.57466
lfemur -35.4668 -0.39039 -9.21453
ltibia 49.2746 -0 0
lfoot -20.4046 8.50777 -0.148344
ltoes 10.3416 -0 0
rfemur -13.4216 -13.4527 20.0526
rtibia 45.6006 -0 0
rfoot -19.2747 -21.3558 -0.1245
rtoes -24.8878 0 0
lowerback 1.31405 4.60833 1.46909
upperback -0.387424 6.1625 -2.67495
thorax -0.68161 3.07838 -3.65933
lowerneck -5.80433 -5.10967 0.416956
upperneck -1.07395 -6.83885 3.43191
head 0.746917 -3.36399 0.820993
lclavicle -8.44835e-15 1.74931e-14 0
lhumerus -55.8546 -10.4912 94.2621
lradius 68.5524 -0 0
lwrist 18.7007 0 0
lhand -19.8214 -0.792716 0.151764
lfingers 7.12502 -0 0
lthumb 6.50999 29.0199 0.136507
rclavicle -8.44835e-15 1.74931e-14 0
rhumerus -34.0977 46.8701 -115.216
rradius 76.8395 -0 0
rwrist 4.41902 0 0
rhand -23.2175 -23.4685 -0.0483683
rfingers 7.12502 -0 0
rthumb 3.23302 -53.4191 -0.0463853
